<svg xmlns="http://www.w3.org/2000/svg" viewBox="0 0 800 600">
  <defs>
    <linearGradient id="pOak" x1="0" y1="0" x2="0" y2="1">
      <stop offset="0" stop-color="#C99C60"/>
      <stop offset="1" stop-color="#9A6A32"/>
    </linearGradient>
    <linearGradient id="pJar" x1="0" y1="0" x2="0" y2="1">
      <stop offset="0" stop-color="#D8B77E" stop-opacity=".9"/>
      <stop offset="1" stop-color="#A9713A" stop-opacity=".9"/>
    </linearGradient>
    <pattern id="brick" width="112" height="64" patternUnits="userSpaceOnUse">
      <rect width="112" height="64" fill="#EFE7DA"/>
      <g fill="none" stroke="#CBBDA2" stroke-width="1.8">
        <rect x="1" y="1" width="110" height="30"/>
        <rect x="-55" y="33" width="110" height="30"/>
        <rect x="57" y="33" width="110" height="30"/>
      </g>
    </pattern>
    <pattern id="pg" width="42" height="180" patternUnits="userSpaceOnUse">
      <g fill="none" stroke="#6E4A20" stroke-opacity=".3" stroke-width="1.4">
        <path d="M8 0q5 45 0 90t0 90"/>
        <path d="M21 0q-4 55 2 100t-2 80"/>
        <path d="M34 0q5 40 0 95t2 85"/>
      </g>
    </pattern>
  </defs>
  <rect width="800" height="600" fill="#26221D"/>
  <rect x="110" y="50" width="620" height="330" fill="url(#brick)"/>
  <rect x="110" y="50" width="620" height="330" fill="none" stroke="#1F1D1A" stroke-width="2"/>
  <g>
    <rect x="40" y="50" width="54" height="500" fill="url(#pOak)"/>
    <rect x="40" y="50" width="54" height="500" fill="url(#pg)"/>
    <rect x="40" y="50" width="54" height="500" fill="none" stroke="#5F3F1B" stroke-opacity=".5" stroke-width="2"/>
    <path d="M30 42h74" stroke="#1F1D1A" stroke-width="6" stroke-linecap="round"/>
    <circle cx="84" cy="300" r="4" fill="#E9D6AF"/>
  </g>
  <g>
    <rect x="150" y="166" width="540" height="14" fill="url(#pOak)"/>
    <rect x="150" y="276" width="540" height="14" fill="url(#pOak)"/>
    <path d="M170 180l10 18M670 180l-10 18M170 290l10 18M670 290l-10 18" stroke="#8F5F2C" stroke-width="4" stroke-linecap="round"/>
  </g>
  <g stroke="#5F3F1B" stroke-opacity=".45" stroke-width="1.6">
    <g fill="url(#pJar)">
      <rect x="182" y="118" width="40" height="48" rx="6"/>
      <rect x="238" y="128" width="34" height="38" rx="6"/>
      <rect x="424" y="112" width="44" height="54" rx="6"/>
      <rect x="596" y="124" width="38" height="42" rx="6"/>
    </g>
    <g fill="#F0E4C9">
      <rect x="300" y="122" width="36" height="44" rx="5"/>
      <rect x="486" y="130" width="32" height="36" rx="5"/>
      <rect x="540" y="118" width="36" height="48" rx="5"/>
    </g>
    <g fill="#B98A4E">
      <rect x="184" y="110" width="36" height="8" rx="3"/>
      <rect x="426" y="104" width="40" height="8" rx="3"/>
      <rect x="542" y="110" width="32" height="8" rx="3"/>
    </g>
  </g>
  <g>
    <g fill="url(#pJar)" stroke="#5F3F1B" stroke-opacity=".45" stroke-width="1.6">
      <rect x="200" y="230" width="36" height="46" rx="6"/>
      <rect x="384" y="238" width="32" height="38" rx="6"/>
      <rect x="580" y="226" width="40" height="50" rx="6"/>
    </g>
    <g fill="#F0E4C9" stroke="#CBBDA2" stroke-width="1.6">
      <rect x="266" y="262" width="64" height="6" rx="3"/>
      <rect x="262" y="269" width="72" height="6" rx="3"/>
      <rect x="266" y="255" width="64" height="6" rx="3"/>
      <rect x="452" y="240" width="34" height="36" rx="5"/>
      <rect x="500" y="248" width="30" height="28" rx="5"/>
    </g>
  </g>
  <rect x="130" y="380" width="580" height="20" rx="3" fill="#EFE7DA" stroke="#C9BCA3" stroke-width="1.6"/>
  <g>
    <rect x="130" y="400" width="580" height="140" fill="#2B2723"/>
    <g fill="none" stroke="#D8B77E" stroke-opacity=".5" stroke-width="2">
      <rect x="152" y="416" width="164" height="108" rx="2"/>
      <rect x="318" y="416" width="164" height="108" rx="2"/>
      <rect x="484" y="416" width="164" height="108" rx="2"/>
      <rect x="170" y="432" width="128" height="76"/>
      <rect x="336" y="432" width="128" height="76"/>
      <rect x="502" y="432" width="128" height="76"/>
    </g>
    <g fill="#E9D6AF">
      <circle cx="306" cy="470" r="5"/>
      <circle cx="472" cy="470" r="5"/>
      <circle cx="638" cy="470" r="5"/>
    </g>
  </g>
  <rect x="130" y="540" width="580" height="14" fill="#171512"/>
</svg>
